<?xml version="1.0" encoding="UTF-8" standalone="no"?>
<!-- Created with Inkscape (http://www.inkscape.org/) -->

<svg
   width="27.448175mm"
   height="26.239332mm"
   viewBox="0 0 27.448175 26.239332"
   version="1.1"
   id="svg1"
   inkscape:version="1.3 (0e150ed6c4, 2023-07-21)"
   sodipodi:docname="starfish.svg"
   xmlns:inkscape="http://www.inkscape.org/namespaces/inkscape"
   xmlns:sodipodi="http://sodipodi.sourceforge.net/DTD/sodipodi-0.dtd"
   xmlns="http://www.w3.org/2000/svg"
   xmlns:svg="http://www.w3.org/2000/svg"
   xmlns:rdf="http://www.w3.org/1999/02/22-rdf-syntax-ns#"
   xmlns:cc="http://creativecommons.org/ns#"
   xmlns:dc="http://purl.org/dc/elements/1.1/">
  <title
     id="title1">starfish</title>
  <sodipodi:namedview
     id="namedview1"
     pagecolor="#ffffff"
     bordercolor="#999999"
     borderopacity="1"
     inkscape:showpageshadow="0"
     inkscape:pageopacity="0"
     inkscape:pagecheckerboard="0"
     inkscape:deskcolor="#d1d1d1"
     inkscape:document-units="mm"
     inkscape:zoom="0.76702441"
     inkscape:cx="51.497709"
     inkscape:cy="48.89023"
     inkscape:window-width="1920"
     inkscape:window-height="1057"
     inkscape:window-x="-8"
     inkscape:window-y="-8"
     inkscape:window-maximized="1"
     inkscape:current-layer="layer1" />
  <defs
     id="defs1" />
  <g
     inkscape:label="Layer 1"
     inkscape:groupmode="layer"
     id="layer1"
     transform="translate(-91.281251,-135.46666)">
    <path
       sodipodi:type="star"
       style="fill:#ff4c00;fill-opacity:1;stroke-width:0.264583"
       id="path22-3-6-2"
       inkscape:flatsided="false"
       sodipodi:sides="5"
       sodipodi:cx="10.48347"
       sodipodi:cy="140.09209"
       sodipodi:r1="14.432176"
       sodipodi:r2="6.5165343"
       sodipodi:arg1="0.87605805"
       sodipodi:arg2="1.5566189"
       inkscape:rounded="0"
       inkscape:randomized="0"
       d="m 19.722724,151.17919 -9.146869,-4.57122 -7.7817615,5.69727 1.5209553,-10.11177 -7.8231286,-5.64034 10.0868712,-1.6782 2.9468018,-9.1832 4.7130738,9.0746 9.644352,-0.0352 -7.174031,7.2866 z"
       inkscape:transform-center-x="0.070743634"
       inkscape:transform-center-y="-1.3106953"
       transform="rotate(2.8966548,-136.12031,2015.6362)" />
    <path
       style="fill:#000000;fill-opacity:1;stroke-width:0.264583"
       id="path26-5"
       sodipodi:type="arc"
       sodipodi:cx="101.99237"
       sodipodi:cy="148.05594"
       sodipodi:rx="1.5816567"
       sodipodi:ry="1.5816572"
       sodipodi:start="0"
       sodipodi:end="6.2574714"
       sodipodi:arc-type="slice"
       d="m 103.57403,148.05594 a 1.5816567,1.5816572 0 0 1 -1.57149,1.58162 1.5816567,1.5816572 0 0 1 -1.5917,-1.56129 1.5816567,1.5816572 0 0 1 1.55103,-1.60169 1.5816567,1.5816572 0 0 1 1.61163,1.54069 l -1.58113,0.0407 z" />
    <path
       style="fill:#000000;fill-opacity:1;stroke-width:0.264583"
       id="path26-4"
       sodipodi:type="arc"
       sodipodi:cx="107.96752"
       sodipodi:cy="148.0686"
       sodipodi:rx="1.5816567"
       sodipodi:ry="1.5816572"
       sodipodi:start="0"
       sodipodi:end="6.2574714"
       sodipodi:arc-type="slice"
       d="m 109.54918,148.0686 a 1.5816567,1.5816572 0 0 1 -1.57149,1.58163 1.5816567,1.5816572 0 0 1 -1.59169,-1.56129 1.5816567,1.5816572 0 0 1 1.55102,-1.6017 1.5816567,1.5816572 0 0 1 1.61164,1.5407 l -1.58114,0.0407 z" />
  </g>
  <metadata
     id="metadata1">
    <rdf:RDF>
      <cc:Work
         rdf:about="">
        <dc:title>starfish</dc:title>
      </cc:Work>
    </rdf:RDF>
  </metadata>
</svg>
